<svg width="162" height="162" viewBox="0 0 162 162" fill="none" xmlns="http://www.w3.org/2000/svg">
<path d="M81 162C125.735 162 162 125.735 162 81C162 36.2649 125.735 0 81 0C36.2649 0 0 36.2649 0 81C0 125.735 36.2649 162 81 162Z" fill="#5C4F5E"/>
<path d="M161.825 86.2701L99.9795 24.425L51.7067 59.2674L93.9365 101.497L63.4156 111.135C63.4156 111.135 20.0405 103.247 19.7725 103.045L78.6927 161.965C79.4593 161.987 80.2282 162 80.9999 162C123.964 162 159.109 128.548 161.825 86.2701Z" fill="#403842"/>
<path d="M91.9532 18.7749C88.1253 17.4624 83.9909 17.551 80.3114 19.0249C76.9584 20.3677 74.0608 22.8056 71.8241 26.1424C69.5874 22.8056 66.6898 20.3677 63.3371 19.0249C59.6576 17.551 55.5228 17.4628 51.6953 18.7749C44.4163 21.271 37.6971 29.259 40.1458 40.899C41.0691 45.2875 43.3004 49.6954 46.7774 53.9995C49.5171 57.391 53.0368 60.731 57.2387 63.927C64.3569 69.3411 70.9018 72.4399 71.1767 72.5693L71.8241 72.8734L72.4714 72.5693C72.7467 72.4399 79.2913 69.3414 86.4095 63.927C90.6113 60.731 94.131 57.391 96.8711 53.9995C100.348 49.6954 102.579 45.2878 103.503 40.899C105.951 29.2593 99.2321 21.2713 91.9532 18.7749V18.7749Z" fill="#FF735C"/>
<path d="M103.503 40.8987C102.579 45.2872 100.348 49.6948 96.8709 53.9979C94.1309 57.3898 90.6124 60.731 86.4106 63.9267C79.2914 69.3404 72.7481 72.4412 72.4729 72.5678L71.8242 72.8747V26.1415C74.0612 22.8066 76.9595 20.3671 80.3102 19.0255C83.99 17.5511 88.1255 17.4625 91.954 18.7755C99.2313 21.272 105.952 29.2581 103.503 40.8987V40.8987Z" fill="#FC435F"/>
<path d="M54.9303 101.998L32.9686 85.4891C28.1222 81.846 21.24 82.8199 17.595 87.6651C13.9478 92.513 14.923 99.3999 19.7725 103.045L38.4902 117.113C44.8952 121.931 52.6927 124.537 60.7079 124.537H119.32V102.522L54.9303 101.998Z" fill="#FCC78D"/>
<path d="M119.32 104.25V92.5599L108.518 92.4703C104.637 92.4381 100.814 91.5195 97.3414 89.7844C95.3955 88.8121 93.25 88.3058 91.0747 88.3058H59.3433C54.9405 88.3058 51.3711 91.8752 51.3711 96.278C51.3711 100.681 54.9405 104.25 59.3433 104.25H119.32Z" fill="#FFDBA9"/>
<path d="M102.689 83.285H134.87V130.543H102.689V83.285Z" fill="#14C4A2"/>
<path d="M102.69 104.25H134.871V130.543H102.69V104.25Z" fill="#02A082"/>
</svg>
